<svg id="svg" version="1.1" width="400" height="577" xmlns="http://www.w3.org/2000/svg" xmlns:xlink="http://www.w3.org/1999/xlink" style="display: block;"><g id="svgg"><path id="path0" d="M190.698 34.383 C 183.869 36.928,180.026 40.467,134.912 85.747 C 93.388 127.424,90.175 130.898,88.162 136.288 C 80.794 156.015,94.215 176.192,114.689 176.169 C 126.169 176.156,128.635 174.541,151.117 152.309 L 171.000 132.648 171.000 225.242 C 171.000 276.169,171.241 318.464,171.535 319.230 C 171.923 320.241,169.244 321.660,161.785 324.393 C 88.462 351.267,62.892 438.722,110.353 500.306 C 151.317 553.461,230.515 559.034,278.901 512.166 C 285.133 506.130,296.000 493.091,296.000 491.651 C 296.000 491.331,297.318 488.991,298.929 486.450 C 301.341 482.647,306.180 471.176,309.454 461.500 C 312.957 451.148,314.284 425.777,312.044 411.983 C 305.539 371.918,278.720 339.729,239.500 324.911 L 229.500 321.133 229.245 226.866 L 228.990 132.599 248.830 152.282 C 261.650 164.999,270.056 172.558,272.585 173.642 C 297.030 184.118,321.119 161.198,311.846 136.288 C 309.224 129.244,221.622 40.333,213.000 35.964 C 207.358 33.105,196.242 32.317,190.698 34.383 " stroke="none" fill="#000000" fill-rule="evenodd"></path></g></svg>